<!--?xml version="1.0" encoding="utf-8"?-->
<!-- Generator: Adobe Illustrator 15.1.0, SVG Export Plug-In . SVG Version: 6.00 Build 0)  -->

<svg version="1.1" id="_x32_" xmlns="http://www.w3.org/2000/svg" xmlns:xlink="http://www.w3.org/1999/xlink" x="0px" y="0px" width="512px" height="512px" viewBox="0 0 512 512" style="width: 256px; height: 256px; opacity: 1;" xml:space="preserve">
<style type="text/css">

	.st0{fill:#4B4B4B;}

</style>
<g>
	<path class="st0" d="M152.226,109.296h207.563L400.32,33.14c3.203-5.625,4.313-16.891-12.594-24.406
		c-23.891-10.625-69.469,35.688-129.563,11.266C194.898-5.704,149.242-2.517,128.585,6.858
		c-20.656,9.391-16.906,26.281-16.906,26.281L152.226,109.296z" style="fill: rgb(75, 75, 75);"></path>
	<path class="st0" d="M466.977,182.202l-47.969-28.906l47.969-28.875c9.469-5.719,12.531-18,6.828-27.469s-17.984-12.5-27.453-6.813
		l-71.672,43.156H129.632c-11.047,0-20,8.969-20,20c0,11.063,8.953,20,20,20h245.047l71.672,43.156
		c9.469,5.719,21.75,2.656,27.453-6.813S476.445,187.89,466.977,182.202z" style="fill: rgb(75, 75, 75);"></path>
	<path class="st0" d="M466.039,356.14c-13.906-21.438-65.219-104.781-98.407-158.844H144.367
		c-33.188,54.063-84.5,137.406-98.406,158.844C0.882,425.608-0.993,511.999,85.398,511.999h341.219
		C512.992,511.999,511.117,425.608,466.039,356.14z M314.195,399.921c-3.25,6.094-7.719,11.188-13.375,15.344
		c-5.672,4.156-12.469,7.25-20.359,9.281c-3.453,0.875-7.063,1.484-10.734,1.984v22.984h-27.438v-22.531
		c-7.813-0.656-15.281-1.875-22.313-3.813c-10.75-2.938-24.813-14.813-24.813-14.813c-1.203-0.703-2-1.938-2.172-3.313
		s0.297-2.766,1.281-3.75l13.75-13.75c1.484-1.469,3.781-1.75,5.563-0.656c0,0,10.297,8.938,18.094,11.063s15.531,3.188,23.25,3.188
		c9.734,0,17.781-1.719,24.156-5.156c6.391-3.469,9.578-8.813,9.578-16.125c0-5.266-1.563-9.422-4.719-12.469
		c-3.141-3.031-8.453-4.938-15.953-5.766l-24.625-2.125c-14.578-1.422-25.828-5.484-33.734-12.156
		c-7.922-6.688-11.859-16.828-11.859-30.391c0-7.5,1.516-14.188,4.563-20.063s7.188-10.844,12.469-14.891
		c5.266-4.047,11.406-7.094,18.391-9.109c2.922-0.844,5.984-1.406,9.094-1.906v-19.813h27.438v19.406
		c6.406,0.625,12.5,1.656,18.172,3.219c9.625,2.625,19.734,10.531,19.734,10.531c1.266,0.656,2.125,1.891,2.344,3.297
		c0.219,1.422-0.25,2.828-1.25,3.859l-12.891,13.094c-1.375,1.391-3.5,1.75-5.25,0.844c0,0-7.641-5.438-14.234-7.156
		s-13.516-2.594-20.813-2.594c-9.531,0-16.578,1.828-21.125,5.469c-4.563,3.656-6.828,8.422-6.828,14.281
		c0,5.281,1.594,9.328,4.859,12.156c3.234,2.844,8.703,4.688,16.406,5.469l21.578,1.844c16,1.406,28.109,5.656,36.313,12.75
		c8.219,7.094,12.313,17.438,12.313,31C319.054,386.765,317.429,393.843,314.195,399.921z" style="fill: rgb(75, 75, 75);"></path>
</g>
</svg>
