<?xml version="1.0" standalone="no"?>
<!DOCTYPE svg PUBLIC "-//W3C//DTD SVG 20010904//EN"
 "http://www.w3.org/TR/2001/REC-SVG-20010904/DTD/svg10.dtd">
<svg version="1.0" xmlns="http://www.w3.org/2000/svg"
 width="700.000000pt" height="700.000000pt" viewBox="0 0 700.000000 700.000000"
 preserveAspectRatio="xMidYMid meet">
<metadata>
Created by potrace 1.14, written by Peter Selinger 2001-2017
</metadata>
<g transform="translate(0.000000,700.000000) scale(0.100000,-0.100000)"
fill="#000000" stroke="none">
<path d="M482 6081 c17 -31 39 -69 48 -86 21 -36 654 -1132 890 -1540 92 -159
177 -306 188 -325 10 -19 86 -150 167 -290 81 -140 161 -280 178 -310 16 -30
36 -62 43 -71 8 -8 14 -18 14 -22 0 -3 46 -86 103 -184 57 -98 136 -234 176
-303 40 -69 76 -132 81 -140 10 -16 52 -89 92 -161 14 -24 81 -141 150 -259
188 -325 394 -682 418 -726 12 -21 26 -43 30 -49 4 -5 19 -30 32 -55 29 -52
207 -361 323 -562 44 -76 82 -138 85 -138 3 0 145 242 315 537 171 296 363
630 429 743 65 113 130 225 143 250 14 25 38 65 53 90 15 25 54 92 87 150 34
58 121 209 193 335 273 473 845 1463 898 1555 31 52 71 122 89 155 19 33 42
74 52 90 17 28 37 63 79 138 11 17 170 293 354 612 184 319 340 589 346 601
l11 20 -3050 0 -3049 0 32 -55z"/>
</g>
</svg>
